<?xml version="1.0" standalone="no"?>
<!DOCTYPE svg PUBLIC "-//W3C//DTD SVG 20010904//EN"
 "http://www.w3.org/TR/2001/REC-SVG-20010904/DTD/svg10.dtd">
<svg version="1.0" xmlns="http://www.w3.org/2000/svg"
 width="225.000000pt" height="224.000000pt" viewBox="0 0 225.000000 224.000000"
 preserveAspectRatio="xMidYMid meet">

<g transform="translate(0.000000,224.000000) scale(0.100000,-0.100000)"
fill="#000000" stroke="none">
<path d="M280 2213 c0 -4 15 -22 33 -41 l32 -33 5 -622 5 -622 34 -90 c30 -77
95 -205 105 -205 2 0 -18 43 -45 95 -80 160 -79 153 -79 822 l0 588 -30 54
-30 54 811 -6 c446 -3 813 -8 816 -10 2 -3 -6 -20 -19 -37 -27 -36 -25 -7 -32
-790 -4 -511 -3 -503 -81 -665 -32 -68 -63 -111 -122 -174 -96 -104 -151 -141
-210 -141 -52 0 -55 11 -7 33 143 69 285 241 340 412 24 73 27 103 35 335 5
140 10 420 12 623 l2 367 -722 0 -723 0 0 -573 c0 -357 4 -596 11 -633 38
-219 150 -389 338 -512 l56 -37 -47 -3 c-54 -4 -80 10 -151 77 -26 25 -47 42
-47 38 0 -9 67 -74 98 -95 28 -19 14 -32 -36 -32 -73 0 -292 -98 -292 -130 0
-5 17 -40 38 -78 64 -117 52 -109 108 -69 97 69 294 99 402 62 41 -14 45 -14
68 4 14 11 51 27 82 37 73 21 165 8 225 -32 32 -21 46 -25 76 -19 20 4 56 11
81 15 93 18 239 -17 317 -77 25 -19 50 -32 56 -30 7 3 34 42 61 86 47 78 48
82 31 101 -29 32 -175 98 -260 118 -77 17 -79 19 -55 32 47 25 163 145 207
214 57 88 97 189 117 295 13 69 16 173 16 613 0 350 4 544 11 573 6 24 24 55
40 71 16 15 29 31 29 36 0 4 -385 8 -855 8 -470 0 -855 -3 -855 -7z m1548
-168 c2 -55 0 -146 -3 -202 l-7 -103 -339 0 -339 0 0 198 c0 109 3 202 7 205
3 4 157 6 342 5 l336 -3 3 -100z m-760 39 c2 -12 -8 -31 -23 -46 -28 -29 -55
-42 -290 -149 -134 -61 -169 -73 -215 -73 -50 -1 -55 1 -58 22 -7 49 25 69
323 199 141 61 178 73 215 71 37 -3 46 -7 48 -24z m-34 -114 c-5 -5 -86 -44
-179 -86 -94 -42 -189 -85 -212 -95 -43 -20 -109 -23 -153 -9 -16 5 -5 6 30 3
63 -6 107 9 365 127 167 76 163 74 149 60z m-564 -150 c0 -5 -2 -10 -4 -10 -3
0 -8 5 -11 10 -3 6 -1 10 4 10 6 0 11 -4 11 -10z m548 -88 l102 -3 0 -200 0
-199 -117 0 c-165 0 -163 -1 -159 69 2 31 7 63 10 72 5 12 0 14 -29 11 -30 -4
-37 -9 -42 -33 -7 -37 -31 -37 -63 1 -16 21 -33 30 -53 30 -24 0 -28 -3 -22
-17 4 -10 9 -42 10 -70 l4 -53 -115 0 -114 0 0 201 0 200 243 -3 c133 -1 288
-4 345 -6z m173 -67 l6 -60 1 63 c2 55 4 62 22 62 19 0 20 -7 20 -94 0 -58 -4
-97 -11 -102 -8 -4 -8 -9 0 -17 6 -6 11 -49 11 -98 l0 -86 -55 -1 -55 0 0 192
c0 106 3 196 7 200 4 4 16 6 28 4 17 -3 21 -13 26 -63z m109 6 c0 -67 -16
-121 -36 -121 -11 0 -14 19 -14 90 0 89 0 90 25 90 24 0 25 -3 25 -59z m60 38
c0 -20 -25 -48 -42 -49 -5 0 -8 16 -8 35 0 31 3 35 25 35 19 0 25 -5 25 -21z
m110 5 c0 -9 -11 -14 -27 -14 -16 0 -38 -3 -50 -6 -18 -5 -23 -2 -23 14 0 17
7 20 50 20 36 0 50 -4 50 -14z m61 -1 c1 -17 2 -17 6 0 3 10 14 17 29 17 28 0
32 -16 7 -23 -12 -3 -8 -5 9 -6 15 0 29 -5 32 -10 9 -14 -133 -26 -147 -12 -8
8 -8 11 1 11 7 0 12 9 12 20 0 26 49 29 51 3z m114 6 c4 -6 5 -12 3 -14 -7 -7
-48 7 -48 16 0 13 37 11 45 -2z m55 -26 c0 -35 0 -36 -20 -18 -11 10 -20 26
-20 37 0 11 7 18 20 18 16 0 20 -7 20 -37z m60 -164 l0 -200 -22 3 c-21 3 -24
10 -29 73 l-5 70 -2 -72 c-2 -64 -4 -73 -21 -73 -17 0 -31 18 -31 41 0 5 9 9
20 9 21 0 29 33 10 45 -17 11 -11 43 10 50 21 7 22 13 25 135 3 118 3 120 25
120 19 0 20 -7 20 -201z m60 1 l0 -200 -25 0 -25 0 0 193 c0 107 3 197 7 200
3 4 15 7 25 7 17 0 18 -13 18 -200z m-343 111 c18 -26 23 -48 23 -93 0 -53 -2
-59 -20 -56 -10 2 -26 -6 -35 -17 -14 -19 -15 -19 -5 8 5 16 10 51 10 79 0 43
-4 54 -30 78 -32 30 -29 43 9 38 16 -2 34 -16 48 -37z m183 -3 c0 -10 3 -9 9
1 13 20 31 -18 30 -61 l-1 -33 -14 40 -14 40 5 -50 c3 -27 1 -56 -3 -63 -10
-15 -71 -31 -119 -32 -18 0 -33 -4 -33 -10 0 -5 -3 -10 -7 -10 -5 0 -8 40 -8
90 l0 89 45 4 c97 8 110 7 110 -5z m-261 -34 c25 -32 26 -51 5 -104 -14 -35
-21 -41 -42 -38 -37 4 -53 35 -28 53 11 8 16 18 13 22 -4 4 -13 1 -19 -5 -15
-15 -68 -16 -68 -2 0 6 9 10 19 10 32 0 50 11 44 26 -3 8 -2 25 1 39 9 34 48
33 75 -1z m-106 -121 c3 -16 6 -56 6 -90 1 -61 1 -63 -24 -63 -25 0 -25 0 -25
90 0 82 2 90 19 90 13 0 21 -9 24 -27z m317 -38 c0 -14 -6 -25 -12 -26 -7 0
-23 -2 -35 -5 -20 -3 -23 0 -23 26 0 28 3 30 35 30 31 0 35 -3 35 -25z m-170
-4 c0 -6 -4 -13 -10 -16 -5 -3 -10 1 -10 9 0 9 5 16 10 16 6 0 10 -4 10 -9z
m218 -37 c-3 -3 -32 -7 -64 -9 l-59 -4 60 12 c58 13 74 13 63 1z m-248 2 c0
-2 -7 -6 -15 -10 -8 -3 -15 -1 -15 4 0 6 7 10 15 10 8 0 15 -2 15 -4z m-67
-20 c9 -7 17 -23 17 -35 0 -16 -6 -21 -25 -21 -22 0 -25 4 -25 35 0 38 6 42
33 21z m125 -29 c3 -23 0 -27 -22 -27 -26 0 -32 13 -20 45 10 25 39 13 42 -18z
m-58 -2 c0 -18 -5 -25 -20 -25 -15 0 -20 7 -20 25 0 18 5 25 20 25 15 0 20 -7
20 -25z m230 0 c0 -18 -5 -25 -20 -25 -15 0 -20 7 -20 25 0 18 5 25 20 25 15
0 20 -7 20 -25z m-872 -2 c5 -18 -22 -26 -63 -19 -22 4 -35 13 -35 22 0 12 10
14 47 12 26 -2 48 -9 51 -15z m820 0 c-2 -10 -13 -19 -26 -21 -17 -3 -22 2
-22 17 0 16 6 21 26 21 19 0 25 -5 22 -17z m-58 -13 c0 -5 -12 -10 -26 -10
-14 0 -23 4 -19 10 3 6 15 10 26 10 10 0 19 -4 19 -10z m-152 -487 l-3 -467
-35 -8 c-28 -6 -45 -2 -84 19 -76 40 -171 43 -259 8 -46 -18 -76 -25 -96 -20
l-28 6 -7 317 c-8 335 -7 578 1 599 4 10 61 13 259 13 l254 0 -2 -467z m-139
-464 c57 -29 65 -30 106 -20 122 31 301 4 433 -64 99 -51 106 -58 90 -87 -34
-60 -74 -118 -80 -118 -4 0 -36 16 -70 35 -88 48 -183 69 -281 61 -42 -4 -88
-11 -101 -17 -19 -9 -30 -7 -62 13 -92 59 -199 63 -294 14 -52 -27 -57 -28
-105 -16 -121 31 -288 7 -380 -56 -20 -13 -42 -24 -50 -24 -8 0 -32 33 -55 73
l-40 72 28 23 c35 30 119 70 185 88 86 23 242 28 317 11 44 -10 69 -12 77 -5
27 22 112 47 164 48 43 0 70 -7 118 -31z"/>
<path d="M1400 2088 c0 -4 -11 -6 -25 -2 -16 4 -25 2 -25 -6 0 -7 -7 -10 -15
-6 -8 3 -21 -1 -29 -9 -8 -8 -22 -15 -30 -15 -9 0 -16 -8 -16 -19 0 -10 -7
-21 -15 -25 -11 -4 -15 -21 -15 -61 0 -67 11 -90 45 -99 14 -4 23 -10 21 -15
-5 -8 31 -19 80 -24 11 -1 28 -8 36 -15 13 -10 18 -9 29 4 12 14 14 14 25 -1
11 -15 14 -15 37 -1 22 15 25 15 37 1 12 -14 15 -14 31 1 10 9 26 13 37 10 13
-5 22 -1 26 10 4 10 13 14 26 11 13 -3 24 1 30 14 6 10 20 19 31 19 20 0 21 5
17 77 -2 48 -8 78 -16 81 -7 2 -12 10 -12 18 0 8 -9 14 -20 14 -11 0 -20 5
-20 10 0 6 -9 10 -20 10 -11 0 -20 5 -20 11 0 5 -8 9 -17 8 -10 -1 -20 0 -23
1 -16 7 -190 6 -190 -2z m172 -11 c27 -1 48 -5 48 -9 0 -5 9 -8 20 -8 11 0 20
-4 20 -10 0 -5 6 -10 13 -10 17 0 49 -38 42 -50 -3 -5 -1 -12 5 -15 8 -5 8
-11 0 -20 -7 -8 -9 -19 -5 -25 3 -5 -1 -10 -9 -10 -8 0 -20 -9 -26 -20 -8 -15
-17 -19 -31 -15 -12 4 -21 1 -25 -10 -4 -10 -13 -13 -26 -9 -10 3 -25 0 -33
-6 -8 -6 -23 -9 -35 -5 -12 4 -27 2 -35 -5 -10 -8 -15 -8 -20 0 -4 7 -19 9
-35 5 -16 -3 -31 -2 -35 4 -3 6 -17 8 -30 5 -12 -3 -26 -1 -29 5 -4 6 -16 11
-27 11 -11 0 -22 7 -25 15 -4 8 -12 15 -20 15 -8 0 -14 7 -14 15 0 8 -4 15
-10 15 -14 0 -12 14 7 60 11 24 24 40 35 40 9 0 20 5 23 10 3 6 15 10 26 10
10 0 19 5 19 11 0 6 8 8 19 4 11 -3 22 -2 24 2 5 7 29 7 169 0z"/>
<path d="M1363 1974 c-3 -8 -2 -19 3 -24 5 -5 9 1 9 16 0 28 -3 30 -12 8z"/>
<path d="M1421 1981 c-26 -17 1 -31 59 -31 58 0 85 14 59 31 -18 11 -100 11
-118 0z"/>
<path d="M1596 1977 c3 -10 9 -15 12 -12 3 3 0 11 -7 18 -10 9 -11 8 -5 -6z"/>
<path d="M1653 1978 c3 -9 -1 -26 -10 -39 l-15 -24 21 24 c24 27 26 37 9 47
-7 5 -9 2 -5 -8z"/>
<path d="M945 2060 c-22 -5 -74 -24 -115 -43 -144 -67 -211 -97 -216 -97 -11
0 -74 -53 -74 -61 0 -22 73 -5 179 42 64 28 143 63 176 77 50 21 115 71 115
88 0 5 -15 4 -65 -6z m-77 -62 c-4 -14 -121 -73 -163 -84 -36 -9 -31 12 8 32
40 22 139 63 150 64 5 0 7 -6 5 -12z"/>
<path d="M577 1654 c-18 -10 -47 -14 -75 -12 l-47 3 -1 -50 c-1 -46 -1 -47 3
-7 4 36 7 42 19 31 11 -9 14 -9 14 0 0 8 11 11 28 9 40 -5 36 -33 -5 -33 -28
0 -33 -4 -33 -22 0 -19 5 -23 33 -23 28 0 58 -6 145 -25 12 -3 22 -12 22 -20
0 -12 15 -15 70 -15 53 0 70 3 70 14 0 19 22 26 80 26 27 0 52 5 56 11 4 7 25
9 61 4 63 -8 83 3 83 46 0 36 -43 69 -69 52 -9 -6 -15 -20 -13 -32 4 -27 -19
-36 -49 -20 l-23 12 23 18 c21 17 22 19 4 19 -10 0 -24 5 -29 10 -9 9 -240 17
-269 9 -5 -2 46 -6 115 -9 l125 -5 3 -27 c2 -18 -2 -29 -10 -30 -23 -3 -62 -5
-100 -7 -36 -1 -37 -1 -31 -36 5 -34 4 -35 -25 -35 -28 0 -30 2 -28 35 2 40
-7 45 -70 45 -32 0 -46 5 -51 16 -8 21 10 49 31 48 9 -1 13 2 10 7 -8 13 -35
10 -67 -7z m15 -64 c2 -22 0 -40 -4 -40 -5 0 -8 18 -8 40 0 22 2 40 4 40 2 0
6 -18 8 -40z m476 17 c2 -10 -3 -17 -12 -17 -18 0 -29 16 -21 31 9 14 29 6 33
-14z m-131 -9 c-3 -8 -6 -5 -6 6 -1 11 2 17 5 13 3 -3 4 -12 1 -19z m3 -42 c0
-3 -4 -8 -10 -11 -5 -3 -10 -1 -10 4 0 6 5 11 10 11 6 0 10 -2 10 -4z"/>
<path d="M1560 1500 c0 -5 7 -10 15 -10 8 0 15 5 15 10 0 6 -7 10 -15 10 -8 0
-15 -4 -15 -10z"/>
<path d="M1341 1604 c0 -11 3 -14 6 -6 3 7 2 16 -1 19 -3 4 -6 -2 -5 -13z"/>
<path d="M1386 1519 c-8 -42 0 -50 9 -9 4 17 5 34 2 36 -2 3 -7 -10 -11 -27z"/>
<path d="M1047 1066 c-113 -42 -167 -117 -167 -231 0 -76 15 -117 60 -169 45
-51 107 -77 184 -77 96 0 167 39 214 120 34 59 38 164 8 224 -54 109 -195 172
-299 133z m109 -31 c18 -13 17 -14 -18 -15 -51 0 -50 -23 2 -39 35 -10 40 -16
40 -41 0 -40 -40 -68 -75 -52 -14 7 -25 18 -25 27 0 12 3 13 19 4 10 -7 26 -9
35 -6 25 10 15 41 -14 45 -50 7 -64 40 -33 74 20 22 43 23 69 3z m-181 -101
c21 -8 45 -56 45 -89 0 -16 -12 -38 -29 -55 -16 -16 -31 -37 -35 -46 -6 -16
-8 -16 -23 -1 -21 21 -29 114 -13 161 11 36 23 42 55 30z m337 -11 c19 -17 24
-43 9 -43 -6 0 -13 5 -16 10 -10 17 -44 11 -55 -9 -21 -41 -5 -131 24 -131 25
0 39 36 21 54 -24 23 -18 36 16 36 31 0 32 -1 26 -41 -14 -108 -112 -104 -124
5 -7 56 2 91 27 116 24 24 47 25 72 3z m-132 -128 c0 -9 -9 -15 -22 -15 l-22
0 22 -16 c28 -20 30 -48 2 -39 -17 6 -20 2 -20 -29 0 -33 -14 -55 -28 -42 -3
4 -5 23 -4 42 2 29 0 35 -15 32 -11 -2 -19 -14 -21 -30 -4 -36 29 -58 77 -51
l36 4 -24 -20 c-32 -29 -57 -26 -92 8 -37 38 -38 74 -1 111 26 26 27 29 10 33
-10 3 -18 10 -18 16 0 7 23 11 60 11 47 0 60 -3 60 -15z"/>
<path d="M947 893 c-11 -10 -8 -93 2 -93 17 0 41 31 41 54 0 32 -27 56 -43 39z"/>
<path d="M1094 344 c3 -9 6 -25 6 -37 0 -18 2 -19 10 -7 6 10 10 11 10 3 0 -7
5 -13 10 -13 6 0 10 17 9 38 0 29 -2 33 -9 17 -7 -18 -8 -19 -15 -2 -9 21 -29
23 -21 1z"/>
<path d="M1156 328 c-7 -33 6 -50 31 -41 18 7 17 59 -3 67 -9 3 -17 6 -19 6
-1 0 -5 -14 -9 -32z m21 -20 c-3 -7 -5 -2 -5 12 0 14 2 19 5 13 2 -7 2 -19 0
-25z"/>
<path d="M1040 313 c0 -24 3 -33 8 -25 5 7 16 10 25 6 15 -5 15 -2 6 25 -16
44 -39 40 -39 -6z"/>
<path d="M640 323 c0 -15 -2 -16 -10 -3 -8 12 -11 13 -19 1 -7 -11 -10 -11
-15 0 -3 8 -3 -2 0 -21 7 -41 9 -44 23 -35 6 3 8 12 4 18 -4 7 0 6 10 -2 15
-12 17 -10 17 23 0 20 -2 36 -5 36 -3 0 -5 -8 -5 -17z"/>
<path d="M670 305 c0 -30 3 -35 23 -34 12 0 16 3 10 6 -7 2 -13 18 -13 34 0
16 -4 29 -10 29 -5 0 -10 -16 -10 -35z"/>
<path d="M720 305 c0 -27 4 -35 18 -34 10 0 12 3 5 6 -18 7 -16 21 5 26 15 4
14 5 -2 6 -20 1 -20 1 0 16 19 14 18 14 -3 15 -20 0 -23 -5 -23 -35z"/>
<path d="M768 301 c-3 -22 0 -31 13 -34 23 -6 29 1 29 35 0 40 -36 40 -42 -1z
m23 -8 c-8 -15 -10 -15 -11 -2 0 17 10 32 18 25 2 -3 -1 -13 -7 -23z"/>
<path d="M1424 318 c-4 -6 0 -16 9 -23 18 -13 24 -30 7 -20 -5 3 -10 1 -10 -4
0 -15 27 -14 36 1 4 6 0 16 -9 23 -18 13 -24 30 -7 20 6 -3 10 -1 10 4 0 15
-27 14 -36 -1z"/>
<path d="M1480 295 c0 -24 5 -35 15 -35 8 0 15 5 15 10 0 6 -6 10 -12 10 -9 0
-8 4 2 10 12 8 13 11 1 19 -11 7 -11 9 0 14 10 4 9 6 -3 6 -14 1 -18 -7 -18
-34z"/>
<path d="M1530 311 c0 -11 -3 -26 -6 -35 -3 -9 -1 -16 4 -16 6 0 13 8 15 18 4
16 5 16 6 0 2 -34 21 -18 21 17 0 28 -4 35 -20 35 -13 0 -20 -7 -20 -19z"/>
<path d="M1590 290 c0 -49 16 -50 36 -2 15 36 3 44 -15 10 -11 -22 -11 -22 -6
-1 3 12 1 24 -5 28 -6 4 -10 -9 -10 -35z"/>
<path d="M540 310 c-11 -7 -11 -13 0 -39 7 -17 16 -31 20 -31 16 0 27 26 20
46 -11 28 -22 35 -40 24z m30 -43 c0 -5 -4 -5 -10 -2 -5 3 -10 14 -10 23 0 15
2 15 10 2 5 -8 10 -19 10 -23z"/>
<path d="M826 298 c-3 -13 -6 -29 -6 -35 0 -18 37 -16 44 2 3 8 1 15 -4 15 -6
0 -10 -5 -10 -11 0 -5 -4 -8 -9 -5 -5 3 -7 15 -4 26 5 17 8 18 21 8 13 -11 14
-10 10 2 -8 25 -35 23 -42 -2z"/>
<path d="M1641 279 c-13 -38 -13 -39 -3 -39 5 0 13 16 19 35 14 44 -1 47 -16
4z"/>
<path d="M504 284 c5 -14 4 -15 -9 -4 -18 15 -20 1 -3 -35 12 -27 16 -29 35
-17 10 6 10 15 1 40 -7 18 -16 32 -21 32 -5 0 -6 -7 -3 -16z"/>
<path d="M880 274 c-10 -26 -6 -44 10 -44 5 0 7 7 4 15 -4 8 -1 15 5 15 6 0 8
7 5 15 -5 11 -2 13 12 8 12 -4 15 -3 10 5 -12 20 -36 13 -46 -14z"/>
<path d="M1670 274 c-14 -36 -12 -44 10 -44 11 0 20 4 20 10 0 5 -6 7 -14 4
-11 -4 -13 0 -9 15 6 23 19 27 26 9 4 -8 6 -7 6 3 2 29 -29 31 -39 3z"/>
<path d="M450 265 c-1 -5 -2 -13 -1 -17 0 -4 -7 -4 -16 -1 -14 6 -14 2 3 -25
18 -32 41 -45 31 -18 -4 11 -1 13 11 9 16 -6 16 -5 1 13 -9 10 -19 26 -22 34
-3 8 -6 11 -7 5z"/>
<path d="M1716 241 c-14 -26 -14 -30 1 -35 9 -4 18 -4 21 -1 3 3 0 5 -6 5 -7
0 -12 5 -12 11 0 6 7 8 16 5 12 -4 15 -2 10 9 -3 10 1 15 12 15 15 0 15 2 2
10 -23 15 -28 12 -44 -19z"/>
<path d="M527 555 c10 -13 22 -25 27 -25 5 0 -1 11 -14 25 -30 32 -36 32 -13
0z"/>
<path d="M994 92 c-9 -13 -8 -20 2 -30 7 -7 11 -18 8 -26 -3 -8 -1 -17 5 -21
7 -4 11 11 11 44 0 53 -8 63 -26 33z"/>
<path d="M1051 92 c-11 -21 3 -42 27 -42 7 0 10 -5 7 -11 -4 -6 -13 -8 -21 -5
-8 3 -14 1 -14 -5 0 -6 10 -9 23 -7 26 4 36 50 16 74 -15 19 -26 18 -38 -4z
m39 -12 c0 -5 -7 -10 -15 -10 -8 0 -15 5 -15 10 0 6 7 10 15 10 8 0 15 -4 15
-10z"/>
<path d="M1130 101 c0 -5 -3 -16 -6 -25 -4 -12 0 -16 15 -16 12 0 21 -6 21
-16 0 -11 -6 -14 -21 -9 -15 5 -19 4 -15 -4 11 -17 46 -13 53 6 4 10 -2 23
-16 35 -18 14 -20 18 -7 18 9 0 16 5 16 10 0 6 -9 10 -20 10 -11 0 -20 -4 -20
-9z"/>
<path d="M1204 88 c-16 -18 -17 -21 -2 -15 14 5 18 -1 21 -31 3 -30 4 -27 5
16 1 28 0 52 -1 52 -2 0 -12 -10 -23 -22z"/>
</g>
</svg>
