<?xml version="1.0" standalone="no"?>
<!DOCTYPE svg PUBLIC "-//W3C//DTD SVG 20010904//EN"
 "http://www.w3.org/TR/2001/REC-SVG-20010904/DTD/svg10.dtd">
<svg version="1.0" xmlns="http://www.w3.org/2000/svg"
 width="274.000000pt" height="362.000000pt" viewBox="0 0 274.000000 362.000000"
 preserveAspectRatio="xMidYMid meet">

<g transform="translate(0.000000,362.000000) scale(0.100000,-0.100000)"
fill="#000000" stroke="none">
<path d="M0 3610 c0 -5 9 -14 20 -20 11 -6 31 -27 45 -48 l25 -37 0 -1010 c0
-638 4 -1042 10 -1095 36 -293 177 -561 380 -721 l82 -64 -44 -8 c-66 -12
-204 -56 -267 -83 -81 -36 -201 -106 -201 -118 0 -8 137 -255 169 -305 8 -12
20 -7 70 27 209 147 453 188 688 115 l51 -16 56 37 c156 104 351 102 517 -4
l50 -33 103 18 c150 26 332 18 441 -19 87 -30 163 -72 210 -117 l30 -28 98
162 98 162 -28 23 c-42 34 -199 108 -278 132 -39 11 -103 26 -144 33 l-73 12
48 34 c230 163 370 380 447 691 20 83 21 112 26 1142 6 1050 6 1057 27 1085
11 15 35 32 52 38 18 5 32 13 32 17 0 4 -616 8 -1370 8 -873 0 -1370 -3 -1370
-10z m2650 -14 c0 -3 -10 -22 -22 -43 l-23 -38 -5 -1070 -5 -1070 -28 -100
c-33 -119 -109 -283 -173 -372 -61 -86 -170 -192 -254 -248 -64 -42 -72 -45
-136 -45 l-69 0 74 40 c274 150 454 420 516 774 13 76 15 233 15 1087 l0 999
-1185 0 -1186 0 3 -1052 4 -1053 26 -100 c79 -297 240 -519 467 -644 l52 -28
-61 -7 c-61 -7 -61 -7 -123 38 -80 56 -167 143 -223 222 -100 140 -179 360
-190 529 -3 44 -6 533 -7 1087 l-2 1006 -32 46 -33 46 1300 0 c715 0 1300 -2
1300 -4z m-140 -441 l0 -325 -580 0 -580 0 0 325 0 325 580 0 580 0 0 -325z
m-1280 250 c16 -8 31 -24 35 -35 15 -47 -5 -59 -460 -281 -276 -135 -341 -159
-424 -159 -69 0 -81 12 -81 76 0 32 7 44 44 78 36 34 94 62 342 165 165 69
328 135 364 147 75 27 139 30 180 9z m-105 -213 c-25 -22 -373 -205 -477 -251
-168 -74 -264 -88 -345 -51 -53 24 -72 58 -50 90 l15 22 7 -24 c33 -107 159
-101 405 17 149 71 440 204 450 205 2 0 0 -4 -5 -8z m203 -719 l-3 -328 -245
0 -245 0 0 30 c0 25 4 30 25 31 14 1 31 2 38 3 8 1 12 25 12 86 l0 85 -54 0
-54 0 -18 -45 c-9 -25 -20 -48 -24 -50 -4 -2 -24 18 -44 45 -37 49 -39 50 -92
50 l-54 0 0 -85 c0 -74 2 -85 18 -86 9 -1 56 0 105 1 l87 2 0 -36 0 -35 -290
-1 -290 0 0 330 0 330 565 0 565 0 -2 -327z m122 -4 l0 -330 -47 3 -48 3 -3
328 -2 327 50 0 50 0 0 -331z m90 181 l0 -150 -25 -10 c-30 -11 -39 -31 -31
-65 4 -15 16 -27 31 -31 25 -6 25 -6 25 -130 l0 -124 -35 0 -35 0 0 330 0 330
35 0 35 0 0 -150z m100 73 c-1 -52 -5 -84 -15 -97 -8 -10 -20 -43 -26 -72 -9
-41 -16 -54 -31 -54 -17 0 -18 11 -18 150 l0 150 45 0 45 0 0 -77z m90 39 c0
-34 -5 -42 -40 -65 l-40 -26 0 65 0 64 40 0 c40 0 40 0 40 -38z m100 3 c0 -34
-1 -35 -40 -35 -39 0 -40 1 -40 35 0 34 1 35 40 35 39 0 40 -1 40 -35z m100 5
c0 -25 -4 -30 -34 -36 -44 -8 -56 0 -56 37 0 28 2 29 45 29 43 0 45 -1 45 -30z
m90 0 c0 -28 -2 -30 -40 -30 -38 0 -40 2 -40 30 0 28 2 30 40 30 38 0 40 -2
40 -30z m100 5 c0 -22 -4 -25 -35 -25 -19 0 -38 0 -42 0 -5 0 -9 11 -11 25 -3
24 -1 25 42 25 42 0 46 -2 46 -25z m90 -14 l0 -39 -40 15 c-31 12 -40 21 -40
40 0 20 5 23 40 23 40 0 40 0 40 -39z m90 -58 l-1 -98 -18 35 c-11 19 -28 44
-40 54 -15 14 -21 31 -21 63 l0 43 40 0 40 0 0 -97z m88 -230 l-3 -328 -35 0
-35 0 -2 328 -2 327 40 0 39 0 -2 -327z m122 -3 l0 -330 -55 0 -55 0 0 330 0
330 55 0 55 0 0 -330z m-345 246 l30 -13 -35 -6 c-19 -3 -87 -9 -151 -13 -97
-5 -121 -4 -139 9 -20 14 -14 15 87 21 59 4 117 8 128 10 38 6 50 5 80 -8z
m-321 -36 c39 -23 72 -80 87 -148 27 -128 -56 -272 -156 -272 l-33 0 33 33
c44 44 70 130 61 204 -8 70 -32 129 -63 153 -21 16 -23 22 -13 35 17 20 46 19
84 -5z m-83 -51 c66 -66 67 -249 2 -321 -22 -25 -65 -23 -90 5 -47 51 -53 97
-13 97 11 0 20 5 20 11 0 8 -18 10 -59 6 -57 -6 -59 -6 -63 18 -6 30 -2 35 33
35 33 0 59 9 59 21 0 5 -7 9 -15 9 -21 0 -19 33 5 80 32 62 82 78 121 39z
m509 -16 c7 -16 15 -60 18 -99 l4 -72 -43 -25 c-38 -21 -60 -26 -155 -30 -61
-2 -121 -10 -134 -17 -21 -11 -22 -10 -16 6 4 10 10 46 13 79 4 51 1 77 -19
150 -3 10 159 31 263 34 52 1 57 -1 69 -26z m-662 -252 c7 -21 12 -56 12 -78
0 -21 5 -44 11 -50 6 -6 9 -28 7 -49 -3 -38 -4 -39 -43 -39 l-40 0 -3 114 c-3
128 -1 141 26 141 13 0 22 -12 30 -39z m687 -208 c-3 -9 -17 -13 -37 -11 -26
2 -34 8 -36 27 -2 13 1 28 7 34 6 6 11 28 11 49 0 25 9 51 28 76 l27 39 3
-100 c1 -55 0 -107 -3 -114z m-165 173 c0 -19 -3 -37 -7 -39 -5 -3 -34 -8 -65
-11 l-58 -7 0 45 0 46 65 0 65 0 0 -34z m80 -75 c0 -17 -10 -20 -67 -25 -38
-4 -87 -9 -111 -11 -37 -4 -43 -2 -40 13 3 14 18 18 95 22 50 3 95 9 99 13 13
13 24 7 24 -12z m-320 -41 c7 -17 20 -35 29 -40 25 -14 0 -32 -40 -28 -30 3
-34 7 -37 36 -6 66 25 86 48 32z m70 9 c0 -15 -5 -20 -22 -17 -34 5 -37 38 -4
38 20 0 26 -5 26 -21z m-130 -34 l0 -45 -40 0 c-39 0 -40 1 -40 35 0 30 4 35
28 41 15 3 32 7 37 9 6 2 11 4 13 4 1 1 2 -19 2 -44z m-117 25 c13 0 17 -8 17
-35 0 -34 -1 -35 -40 -35 l-40 0 0 41 c0 38 2 41 23 35 12 -3 30 -6 40 -6z
m405 -37 c-3 -25 -7 -28 -43 -28 -31 0 -41 4 -43 19 -5 24 14 36 56 36 30 0
33 -2 30 -27z m92 -4 c0 -29 -2 -30 -37 -27 -33 3 -38 7 -41 31 -3 26 -1 27
37 27 39 0 41 -1 41 -31z m-190 -4 c0 -22 -4 -25 -40 -25 -33 0 -40 3 -40 19
0 15 8 21 33 24 17 2 35 5 40 5 4 1 7 -9 7 -23z m-232 -802 l-3 -757 -64 -12
c-63 -11 -66 -11 -109 17 -153 97 -370 97 -536 1 -49 -29 -50 -29 -108 -14
l-58 14 0 754 0 754 440 0 440 0 -2 -757z m-298 -723 c33 -11 83 -34 110 -51
l50 -31 73 14 c109 20 382 17 487 -6 137 -29 275 -86 379 -155 12 -7 -2 -36
-69 -148 -46 -76 -85 -140 -86 -142 -1 -1 -20 11 -41 27 -55 44 -152 90 -241
114 -98 25 -299 28 -416 4 l-79 -16 -50 31 c-183 113 -378 111 -547 -6 l-35
-24 -65 21 c-54 17 -91 21 -210 22 -126 1 -155 -2 -220 -22 -88 -28 -176 -71
-243 -118 -26 -19 -49 -34 -51 -34 -11 0 -157 273 -153 284 9 22 225 123 321
151 49 14 121 30 160 36 96 15 314 6 398 -16 l67 -17 48 28 c124 72 293 94
413 54z"/>
<path d="M1899 3413 c-13 -16 -12 -17 4 -4 9 7 17 15 17 17 0 8 -8 3 -21 -13z"/>
<path d="M1962 3404 c10 -10 20 -16 22 -13 3 3 -5 11 -17 18 -21 13 -21 12 -5
-5z"/>
<path d="M1774 3388 l-19 -23 23 19 c21 18 27 26 19 26 -2 0 -12 -10 -23 -22z"/>
<path d="M2148 3393 c7 -3 16 -2 19 1 4 3 -2 6 -13 5 -11 0 -14 -3 -6 -6z"/>
<path d="M1718 3383 c7 -3 16 -2 19 1 4 3 -2 6 -13 5 -11 0 -14 -3 -6 -6z"/>
<path d="M2098 3383 c7 -3 16 -2 19 1 4 3 -2 6 -13 5 -11 0 -14 -3 -6 -6z"/>
<path d="M2165 3369 c-4 -6 -5 -12 -2 -15 2 -3 7 2 10 11 7 17 1 20 -8 4z"/>
<path d="M2217 3352 c17 -5 20 -11 13 -22 -12 -19 -13 -30 -2 -30 5 0 9 6 9
13 0 6 4 20 8 30 6 14 2 17 -21 16 -26 -1 -27 -2 -7 -7z"/>
<path d="M1600 3326 c0 -13 -6 -27 -12 -29 -7 -3 -2 -6 11 -6 20 -1 23 3 19
23 -5 23 -1 25 36 29 l41 4 -47 1 c-45 2 -48 0 -48 -22z"/>
<path d="M2060 3331 c0 -5 9 -13 21 -16 11 -4 36 -20 55 -37 45 -40 46 -77 2
-112 -18 -14 -28 -26 -21 -26 7 0 24 11 39 23 34 30 37 77 6 110 -28 29 -102
72 -102 58z"/>
<path d="M2275 3291 c19 -8 19 -8 -4 -21 l-24 -12 34 -15 34 -15 -25 -9 c-35
-14 -35 -16 -10 -37 l23 -19 -43 -7 c-33 -5 -40 -10 -32 -18 24 -24 13 -38
-28 -38 -34 0 -40 -3 -40 -21 0 -20 -4 -21 -45 -16 -42 6 -46 5 -55 -18 -11
-30 -10 -29 -54 -9 -33 16 -35 16 -61 -4 l-27 -22 -29 21 c-26 18 -33 19 -65
7 -35 -12 -45 -8 -57 25 -1 5 -21 4 -45 -1 -40 -9 -42 -9 -42 14 0 22 -4 24
-45 24 l-45 0 16 25 c16 24 16 25 -7 25 -13 0 -30 4 -38 9 -10 7 -8 12 9 24
l23 16 -38 15 c-21 9 -39 16 -41 16 -2 0 -4 -31 -4 -70 0 -40 4 -70 10 -70 6
0 10 -9 10 -19 0 -33 11 -51 31 -51 13 0 19 -7 19 -24 0 -22 5 -25 43 -28 35
-2 43 -7 45 -26 3 -21 7 -22 53 -16 27 4 49 3 49 -2 1 -29 17 -34 54 -19 35
15 38 15 63 -5 l26 -20 32 20 c30 19 35 19 68 5 35 -14 37 -14 48 6 10 19 17
21 59 15 47 -6 49 -6 52 21 3 25 7 28 43 28 36 0 40 3 43 28 3 21 9 27 28 27
20 0 24 5 24 30 0 17 5 30 10 30 13 0 13 133 1 146 -5 5 -11 20 -13 34 -2 18
-10 26 -28 27 -22 2 -22 2 -5 -6z"/>
<path d="M1535 3260 c0 -28 2 -30 25 -25 36 9 38 14 10 35 -33 26 -35 25 -35
-10z"/>
<path d="M1755 3266 c-58 -25 -70 -70 -24 -84 10 -4 9 1 -4 15 -16 19 -16 20
0 35 10 9 32 23 48 31 36 19 22 21 -20 3z"/>
<path d="M2060 3267 c0 -4 7 -18 15 -31 14 -21 13 -24 -2 -39 -10 -8 -34 -20
-53 -25 -29 -9 -31 -10 -10 -11 31 -1 90 34 90 53 0 14 -39 67 -40 53z"/>
<path d="M1815 3248 c-20 -11 -35 -28 -35 -40 0 -22 139 -36 200 -19 36 10 37
37 1 55 -35 19 -136 21 -166 4z"/>
<path d="M1070 3353 c-54 -21 -487 -221 -540 -250 -77 -42 -130 -80 -130 -94
0 -12 86 -11 135 2 22 6 141 58 265 115 220 102 360 183 360 209 0 22 -52 32
-90 18z m-126 -112 c10 -15 -27 -38 -166 -100 -124 -55 -168 -65 -168 -40 0
16 26 32 150 89 119 56 172 70 184 51z"/>
<path d="M456 2668 c-14 -20 -20 -21 -111 -15 l-95 6 0 -84 0 -85 88 6 c74 6
89 4 101 -10 10 -12 31 -16 82 -16 64 0 70 -2 91 -30 22 -30 22 -30 124 -30
l101 0 24 35 24 35 86 0 c70 0 88 3 93 16 5 13 18 15 69 11 34 -3 76 -8 94
-12 45 -10 73 20 73 80 0 60 -36 101 -78 90 -15 -4 -56 -9 -92 -12 -57 -4 -68
-2 -84 16 -18 20 -29 21 -297 21 -273 0 -278 0 -293 -22z m586 -14 c10 -22 17
-24 79 -24 45 0 69 -4 72 -12 2 -7 3 -5 1 5 -3 24 29 39 59 28 25 -10 37 -29
37 -60 0 -30 -89 -58 -91 -28 0 10 -2 10 -6 0 -3 -9 -27 -13 -69 -13 l-64 0
-2 38 -1 37 -4 -37 c-6 -51 -23 -48 -25 5 l-1 42 -4 -42 -4 -43 -104 0 -104 0
-3 -62 -3 -63 -67 -3 -68 -3 0 66 0 65 -95 0 -95 0 0 65 0 66 275 -1 276 -1
11 -25z m-507 -144 c52 0 65 -3 65 -15 0 -13 -13 -15 -72 -13 l-73 3 -3 74
c-2 41 1 81 5 90 5 10 9 -15 11 -61 l3 -78 64 0z m-235 65 c0 -68 -2 -75 -20
-75 -18 0 -20 7 -20 75 0 68 2 75 20 75 18 0 20 -7 20 -75z m100 25 c0 -29 -2
-30 -45 -30 -43 0 -45 1 -45 30 0 29 2 30 45 30 43 0 45 -1 45 -30z"/>
<path d="M1751 2404 c0 -11 3 -14 6 -6 3 7 2 16 -1 19 -3 4 -6 -2 -5 -13z"/>
<path d="M1731 2353 c-10 -26 -10 -27 4 -9 8 11 15 23 15 28 0 15 -7 8 -19
-19z"/>
<path d="M1286 1720 c-121 -21 -241 -114 -294 -228 -24 -51 -27 -69 -27 -167
0 -100 3 -115 28 -168 40 -80 112 -151 194 -190 62 -29 76 -32 168 -32 93 0
105 2 167 33 86 42 153 109 192 192 29 60 31 73 31 170 0 88 -4 113 -23 154
-78 169 -257 266 -436 236z m98 -51 c27 -13 43 -39 23 -39 -7 0 -18 5 -24 11
-6 6 -26 9 -44 7 -29 -3 -34 -7 -37 -32 -4 -33 10 -46 53 -46 46 0 75 -25 75
-63 0 -54 -23 -77 -80 -77 -32 0 -54 6 -66 17 -12 12 -13 18 -4 21 6 2 17 -1
23 -7 16 -16 73 -13 91 5 36 35 14 74 -45 81 -51 6 -79 27 -79 57 0 30 26 64
53 69 12 2 25 5 29 6 4 0 18 -4 32 -10z m-276 -193 c93 -48 67 -204 -40 -245
-22 -8 -28 -17 -28 -41 0 -16 -4 -30 -10 -30 -6 0 -10 56 -10 147 0 122 3 149
17 165 19 22 35 23 71 4z m544 -3 c25 -28 32 -63 14 -63 -9 0 -16 8 -16 20 0
40 -67 53 -100 20 -18 -18 -20 -33 -20 -130 0 -98 2 -110 19 -120 53 -28 101
1 101 62 0 31 -3 38 -20 38 -11 0 -20 5 -20 10 0 6 16 10 35 10 34 0 35 -1 35
-40 0 -78 -49 -130 -110 -115 -55 14 -60 28 -60 158 0 110 2 123 22 144 27 29
97 32 120 6z m-212 -198 c0 -11 -11 -15 -40 -15 -36 0 -40 -2 -40 -25 0 -15 6
-25 14 -25 19 0 63 -37 54 -45 -4 -4 -17 0 -30 9 -12 9 -26 16 -30 16 -5 0 -8
-31 -8 -70 0 -56 -3 -70 -15 -70 -12 0 -15 14 -15 70 0 79 -12 89 -55 45 -68
-67 11 -189 101 -155 16 6 32 17 36 23 5 8 10 9 18 1 7 -7 4 -16 -11 -30 -15
-14 -36 -19 -76 -19 -49 0 -58 3 -84 33 -24 27 -29 41 -29 83 0 43 5 55 29 80
16 16 39 29 50 29 16 0 21 6 21 25 0 23 -4 25 -40 25 -29 0 -40 4 -40 15 0 12
17 15 95 15 78 0 95 -3 95 -15z"/>
<path d="M1052 1458 c-12 -12 -18 -208 -7 -208 20 0 67 35 80 60 25 48 19 97
-14 131 -33 32 -41 35 -59 17z"/>
<path d="M1295 531 c-8 -15 6 -91 18 -91 5 0 7 13 4 30 -4 17 -4 30 -2 30 2 0
11 -13 20 -30 19 -36 51 -42 41 -7 -3 12 -6 35 -6 50 0 18 -4 26 -11 21 -6 -3
-8 -17 -5 -30 9 -33 0 -30 -19 6 -16 31 -29 37 -40 21z"/>
<path d="M1210 504 c-13 -33 -13 -84 0 -84 6 0 10 6 10 14 0 19 25 27 39 13
22 -22 22 3 -1 42 -27 48 -35 50 -48 15z m30 -25 c0 -5 -4 -9 -10 -9 -5 0 -10
7 -10 16 0 8 5 12 10 9 6 -3 10 -10 10 -16z"/>
<path d="M1407 523 c-2 -5 -7 -25 -11 -45 -6 -35 -5 -38 20 -44 15 -4 34 -2
43 3 23 15 27 64 5 80 -20 14 -50 17 -57 6z m48 -43 c0 -16 -6 -26 -17 -28
-14 -3 -18 3 -18 28 0 25 4 31 18 28 11 -2 17 -12 17 -28z"/>
<path d="M660 447 c0 -52 3 -56 35 -49 28 5 35 21 9 18 -9 0 -19 5 -21 12 -3
7 4 12 17 12 12 0 19 4 15 10 -3 5 -12 7 -20 3 -8 -3 -15 0 -15 6 0 7 10 16
23 21 20 8 19 9 -10 9 -32 1 -33 0 -33 -42z"/>
<path d="M740 446 c0 -44 1 -46 29 -46 36 0 53 20 49 57 -3 24 -8 28 -40 31
l-38 3 0 -45z m44 28 c31 -12 14 -64 -20 -64 -2 0 -4 16 -4 35 0 38 0 38 24
29z"/>
<path d="M1824 475 c-19 -15 -18 -16 10 -39 18 -15 24 -26 17 -30 -6 -4 -15
-4 -21 -1 -5 3 -10 1 -10 -4 0 -6 11 -11 25 -11 35 0 44 28 17 51 -26 20 -28
29 -7 29 8 0 15 5 15 10 0 15 -23 12 -46 -5z"/>
<path d="M1900 440 c0 -49 1 -50 30 -50 17 0 30 5 30 10 0 6 -9 10 -20 10 -11
0 -20 5 -20 10 0 6 7 10 15 10 8 0 15 5 15 10 0 6 -7 10 -15 10 -8 0 -15 5
-15 10 0 6 9 10 21 10 11 0 17 5 14 10 -3 6 -17 10 -31 10 -22 0 -24 -4 -24
-50z"/>
<path d="M540 443 l-1 -38 -14 33 c-17 39 -35 34 -36 -11 l-1 -32 -11 28 c-6
15 -17 27 -24 27 -9 0 -6 -13 9 -45 24 -49 39 -53 48 -14 5 20 7 21 13 7 3
-10 13 -18 22 -18 11 0 15 12 15 50 0 28 -4 50 -10 50 -5 0 -10 -17 -10 -37z"/>
<path d="M580 468 c0 -7 3 -29 6 -49 6 -32 8 -35 35 -31 32 5 40 22 9 22 -14
0 -21 9 -26 35 -6 33 -24 50 -24 23z"/>
<path d="M852 468 c-15 -15 -15 -51 0 -66 7 -7 25 -12 40 -12 23 0 28 4 28 25
0 16 -6 25 -16 25 -11 0 -14 -6 -9 -21 8 -25 -12 -23 -29 3 -13 22 10 51 35
43 11 -4 19 -2 19 4 0 15 -53 14 -68 -1z"/>
<path d="M1976 439 c-7 -46 0 -63 15 -36 12 21 29 22 29 3 0 -8 5 -18 10 -21
6 -4 10 5 9 22 -1 15 -1 33 1 38 6 25 -2 35 -29 35 -26 0 -29 -4 -35 -41z m44
16 c0 -8 -4 -15 -10 -15 -5 0 -10 7 -10 15 0 8 5 15 10 15 6 0 10 -7 10 -15z"/>
<path d="M2067 438 c6 -45 22 -74 33 -61 24 28 49 82 41 88 -6 3 -18 -9 -28
-27 l-17 -33 -6 34 c-8 53 -29 52 -23 -1z"/>
<path d="M944 443 c-3 -16 -8 -34 -10 -42 -3 -8 1 -18 8 -23 18 -11 48 -10 48
2 0 6 -7 10 -15 10 -8 0 -15 5 -15 10 0 6 10 10 23 10 20 1 21 2 5 14 -24 18
-23 26 5 26 18 0 19 2 7 10 -28 18 -49 11 -56 -17z"/>
<path d="M2154 415 c-6 -41 -1 -66 10 -54 11 11 17 99 8 99 -6 0 -14 -20 -18
-45z"/>
<path d="M2202 428 c-19 -19 -15 -66 7 -78 24 -12 41 -13 41 -1 0 5 -9 11 -21
14 -32 9 -22 51 14 55 15 2 25 8 22 13 -9 13 -49 11 -63 -3z"/>
<path d="M360 416 c-29 -36 13 -92 58 -75 25 9 31 56 10 77 -16 16 -53 15 -68
-2z m60 -37 c0 -24 -18 -33 -35 -19 -18 15 -20 47 -2 53 17 6 37 -12 37 -34z"/>
<path d="M2278 377 l-16 -43 29 -11 c16 -6 31 -7 34 -3 3 5 -4 11 -15 15 -26
8 -26 29 0 22 27 -7 36 10 10 18 -26 8 -17 25 10 18 11 -3 20 -1 20 5 0 8 -30
21 -50 22 -3 0 -13 -19 -22 -43z"/>
<path d="M306 402 c-4 -6 -2 -21 4 -33 12 -21 12 -21 -19 -3 -17 10 -33 15
-37 11 -9 -9 21 -80 36 -85 8 -3 11 1 8 9 -24 57 -24 55 6 31 50 -39 58 -25
28 43 -12 25 -21 35 -26 27z"/>
<path d="M207 353 c-4 -3 -7 -16 -7 -27 -1 -19 -1 -20 -11 -3 -6 9 -14 15 -20
12 -5 -4 1 -24 14 -45 23 -42 43 -53 34 -20 -6 23 -3 24 23 10 13 -7 21 -7 25
0 3 5 -6 15 -20 22 -20 9 -26 18 -22 35 4 22 -3 30 -16 16z"/>
<path d="M1144 144 c-16 -13 -16 -15 -1 -10 15 5 17 -2 17 -59 0 -35 5 -67 10
-70 6 -4 10 23 10 74 0 45 -4 81 -8 81 -5 0 -17 -7 -28 -16z"/>
<path d="M1257 142 c-35 -38 -11 -89 38 -80 14 3 25 2 25 -3 0 -13 -30 -39
-45 -39 -8 0 -17 -5 -21 -11 -12 -21 49 0 69 23 9 11 17 37 17 58 0 62 -47 91
-83 52z m61 -33 c4 -30 -22 -46 -44 -28 -15 12 -19 41 -7 53 16 16 48 1 51
-25z"/>
<path d="M1387 153 c-4 -3 -7 -18 -7 -32 0 -20 7 -29 31 -38 24 -9 30 -17 27
-35 -2 -18 -10 -24 -36 -26 -36 -4 -34 -22 2 -22 58 0 75 77 21 94 -16 6 -31
11 -33 12 -1 0 0 9 4 18 4 10 17 16 35 16 16 0 29 5 29 10 0 11 -63 14 -73 3z"/>
<path d="M1514 145 c-19 -15 -19 -16 1 -13 18 3 21 -4 26 -67 l5 -70 2 83 c1
45 -2 82 -6 82 -5 0 -17 -7 -28 -15z"/>
</g>
</svg>
